<svg width="180" height="182" viewBox="0 0 180 182" fill="none" xmlns="http://www.w3.org/2000/svg">
<g filter="url(#filter0_i_58_63)">
<circle cx="90" cy="92" r="90" fill="#D9C743"/>
</g>
<g style="mix-blend-mode:lighten" filter="url(#filter1_f_58_63)">
<path d="M173.282 59.8818C154.439 13.8863 101.877 -8.12524 55.8818 10.7178C55.8818 10.7178 87 0.505492 124 16C161 31.4946 173.282 59.8818 173.282 59.8818Z" fill="white" fill-opacity="0.75"/>
</g>
<g filter="url(#filter2_i_58_63)">
<circle cx="90" cy="92" r="74" fill="url(#paint0_linear_58_63)"/>
</g>
<circle cx="90" cy="92" r="63.5" fill="#D9C743" stroke="url(#paint1_linear_58_63)"/>
<g filter="url(#filter3_di_58_63)">
<path d="M99.6176 119.5L89.9117 125.971L80.2058 119.5V98.4706L60.7941 85.5294V75.8235L70.4999 69.3529L89.9117 80.6765L109.323 69.3529L119.029 75.8235V87.1471L99.6176 98.4706V119.5Z" fill="white" stroke="white"/>
<path d="M89.9118 59.6471L80.2059 64.5L89.9118 69.3529L99.6177 64.5L89.9118 59.6471Z" fill="white" stroke="white"/>
<path d="M99.6177 130.824L89.9118 135.676L80.2059 130.824V142.147L89.9118 147L99.6177 142.147V130.824Z" fill="white" stroke="white"/>
<path d="M70.4999 103.863L60.7941 98.4706V109.255L70.4999 114.647V103.863Z" fill="white" stroke="white"/>
<path d="M109.324 103.863L119.029 98.4706V109.255L109.324 114.647V103.863Z" fill="white" stroke="white"/>
<path d="M128.735 80.6765V69.3529L119.029 64.5L128.735 59.6471L136.824 64.5V75.8235L128.735 80.6765Z" fill="white" stroke="white"/>
<path d="M51.0882 80.6765V69.3529L60.7941 64.5L51.0882 59.6471L43 64.5V75.8235L51.0882 80.6765Z" fill="white" stroke="white"/>
<path d="M51.0882 92L43 87.1471V120.596L70.5 137.294V125.971L51.0882 114.647V92Z" fill="white" stroke="white"/>
<path d="M128.735 92L136.823 87.1471V120.596L109.323 137.294V125.971L128.735 114.647V92Z" fill="white" stroke="white"/>
<path d="M70.5 58.0294L89.9117 46.7059L109.324 58.0294L117.412 53.1765L89.9117 37L62.4117 53.1765L70.5 58.0294Z" fill="white" stroke="white"/>
</g>
<defs>
<filter id="filter0_i_58_63" x="0" y="0" width="181" height="182" filterUnits="userSpaceOnUse" color-interpolation-filters="sRGB">
<feFlood flood-opacity="0" result="BackgroundImageFix"/>
<feBlend mode="normal" in="SourceGraphic" in2="BackgroundImageFix" result="shape"/>
<feColorMatrix in="SourceAlpha" type="matrix" values="0 0 0 0 0 0 0 0 0 0 0 0 0 0 0 0 0 0 127 0" result="hardAlpha"/>
<feOffset dx="1" dy="-2"/>
<feGaussianBlur stdDeviation="1"/>
<feComposite in2="hardAlpha" operator="arithmetic" k2="-1" k3="1"/>
<feColorMatrix type="matrix" values="0 0 0 0 0.752941 0 0 0 0 0.690196 0 0 0 0 0.247059 0 0 0 1 0"/>
<feBlend mode="normal" in2="shape" result="effect1_innerShadow_58_63"/>
</filter>
<filter id="filter1_f_58_63" x="52.8818" y="0.976379" width="123.401" height="61.9054" filterUnits="userSpaceOnUse" color-interpolation-filters="sRGB">
<feFlood flood-opacity="0" result="BackgroundImageFix"/>
<feBlend mode="normal" in="SourceGraphic" in2="BackgroundImageFix" result="shape"/>
<feGaussianBlur stdDeviation="1.5" result="effect1_foregroundBlur_58_63"/>
</filter>
<filter id="filter2_i_58_63" x="16" y="17" width="149" height="149" filterUnits="userSpaceOnUse" color-interpolation-filters="sRGB">
<feFlood flood-opacity="0" result="BackgroundImageFix"/>
<feBlend mode="normal" in="SourceGraphic" in2="BackgroundImageFix" result="shape"/>
<feColorMatrix in="SourceAlpha" type="matrix" values="0 0 0 0 0 0 0 0 0 0 0 0 0 0 0 0 0 0 127 0" result="hardAlpha"/>
<feOffset dx="1" dy="-1"/>
<feGaussianBlur stdDeviation="1"/>
<feComposite in2="hardAlpha" operator="arithmetic" k2="-1" k3="1"/>
<feColorMatrix type="matrix" values="0 0 0 0 1 0 0 0 0 1 0 0 0 0 1 0 0 0 0.65 0"/>
<feBlend mode="normal" in2="shape" result="effect1_innerShadow_58_63"/>
</filter>
<filter id="filter3_di_58_63" x="38.5" y="34.4199" width="98.8235" height="115.139" filterUnits="userSpaceOnUse" color-interpolation-filters="sRGB">
<feFlood flood-opacity="0" result="BackgroundImageFix"/>
<feColorMatrix in="SourceAlpha" type="matrix" values="0 0 0 0 0 0 0 0 0 0 0 0 0 0 0 0 0 0 127 0" result="hardAlpha"/>
<feOffset dx="-2"/>
<feGaussianBlur stdDeviation="1"/>
<feComposite in2="hardAlpha" operator="out"/>
<feColorMatrix type="matrix" values="0 0 0 0 0.952941 0 0 0 0 0.729412 0 0 0 0 0.184314 0 0 0 0.5 0"/>
<feBlend mode="normal" in2="BackgroundImageFix" result="effect1_dropShadow_58_63"/>
<feBlend mode="normal" in="SourceGraphic" in2="effect1_dropShadow_58_63" result="shape"/>
<feColorMatrix in="SourceAlpha" type="matrix" values="0 0 0 0 0 0 0 0 0 0 0 0 0 0 0 0 0 0 127 0" result="hardAlpha"/>
<feOffset dx="1"/>
<feComposite in2="hardAlpha" operator="arithmetic" k2="-1" k3="1"/>
<feColorMatrix type="matrix" values="0 0 0 0 0.894118 0 0 0 0 0.898039 0 0 0 0 0.913725 0 0 0 1 0"/>
<feBlend mode="normal" in2="shape" result="effect2_innerShadow_58_63"/>
</filter>
<linearGradient id="paint0_linear_58_63" x1="164" y1="40.8" x2="16" y2="143.2" gradientUnits="userSpaceOnUse">
<stop stop-color="#C2A620"/>
<stop offset="1" stop-color="#EED755"/>
</linearGradient>
<linearGradient id="paint1_linear_58_63" x1="154" y1="28" x2="26" y2="156" gradientUnits="userSpaceOnUse">
<stop offset="0.270833" stop-color="#CFB82E"/>
<stop offset="1" stop-color="#EFDB62"/>
</linearGradient>
</defs>
</svg>
