<svg width="180" height="180" viewBox="0 0 180 180" fill="none" xmlns="http://www.w3.org/2000/svg">
<g clip-path="url(#clip0_67_923)">
<circle cx="90" cy="90" r="90" fill="#E84142"/>
<g filter="url(#filter0_d_67_923)">
<path d="M115.661 92.5714C117.97 88.5714 123.744 88.5714 126.053 92.5714L140.157 117C142.467 121 139.58 126 134.961 126H106.753C102.135 126 99.2478 121 101.557 117L115.661 92.5714Z" fill="white"/>
<path d="M105.237 55.8203L95.184 37.4413C92.9247 33.3111 87.0063 33.2729 84.6938 37.3735L39.8496 116.894C37.574 120.929 40.5354 125.911 45.1674 125.84L65.3501 125.532C72.4547 125.424 78.9683 121.554 82.4613 115.366L105.108 75.2503C108.505 69.2312 108.555 61.8843 105.237 55.8203Z" fill="white" stroke="white"/>
</g>
</g>
<defs>
<filter id="filter0_d_67_923" x="38.5659" y="33.8207" width="102.904" height="93.0204" filterUnits="userSpaceOnUse" color-interpolation-filters="sRGB">
<feFlood flood-opacity="0" result="BackgroundImageFix"/>
<feColorMatrix in="SourceAlpha" type="matrix" values="0 0 0 0 0 0 0 0 0 0 0 0 0 0 0 0 0 0 127 0" result="hardAlpha"/>
<feOffset dx="0.5" dy="0.5"/>
<feComposite in2="hardAlpha" operator="out"/>
<feColorMatrix type="matrix" values="0 0 0 0 0 0 0 0 0 0 0 0 0 0 0 0 0 0 0.25 0"/>
<feBlend mode="normal" in2="BackgroundImageFix" result="effect1_dropShadow_67_923"/>
<feBlend mode="normal" in="SourceGraphic" in2="effect1_dropShadow_67_923" result="shape"/>
</filter>
<clipPath id="clip0_67_923">
<rect width="180" height="180" fill="white"/>
</clipPath>
</defs>
</svg>
