<svg width="180" height="180" viewBox="0 0 180 180" fill="none" xmlns="http://www.w3.org/2000/svg">
<g clip-path="url(#clip0_67_779)">
<path d="M90 180C139.706 180 180 139.706 180 90C180 40.2944 139.706 0 90 0C40.2944 0 0 40.2944 0 90C0 139.706 40.2944 180 90 180Z" fill="#F3BA2F"/>
<g filter="url(#filter0_d_67_779)">
<path d="M99.6176 117.5L89.9118 123.971L80.2059 117.5V96.4706L60.7941 83.5294V73.8235L70.5 67.3529L89.9118 78.6765L109.324 67.3529L119.029 73.8235V85.1471L99.6176 96.4706V117.5Z" fill="white" stroke="white"/>
<path d="M89.9118 57.6471L80.2059 62.5L89.9118 67.3529L99.6177 62.5L89.9118 57.6471Z" fill="white" stroke="white"/>
<path d="M99.6177 128.824L89.9118 133.676L80.2059 128.824V140.147L89.9118 145L99.6177 140.147V128.824Z" fill="white" stroke="white"/>
<path d="M70.5 101.863L60.7941 96.4706V107.255L70.5 112.647V101.863Z" fill="white" stroke="white"/>
<path d="M109.324 101.863L119.029 96.4706V107.255L109.324 112.647V101.863Z" fill="white" stroke="white"/>
<path d="M128.735 78.6765V67.3529L119.029 62.5L128.735 57.6471L136.824 62.5V73.8235L128.735 78.6765Z" fill="white" stroke="white"/>
<path d="M51.0882 78.6765V67.3529L60.7941 62.5L51.0882 57.6471L43 62.5V73.8235L51.0882 78.6765Z" fill="white" stroke="white"/>
<path d="M51.0882 90L43 85.1471V118.596L70.5 135.294V123.971L51.0882 112.647V90Z" fill="white" stroke="white"/>
<path d="M128.735 90L136.824 85.1471V118.596L109.324 135.294V123.971L128.735 112.647V90Z" fill="white" stroke="white"/>
<path d="M70.5 56.0294L89.9118 44.7059L109.324 56.0294L117.412 51.1765L89.9118 35L62.4118 51.1765L70.5 56.0294Z" fill="white" stroke="white"/>
</g>
</g>
<defs>
<filter id="filter0_d_67_779" x="42.5" y="34.4199" width="95.3235" height="111.639" filterUnits="userSpaceOnUse" color-interpolation-filters="sRGB">
<feFlood flood-opacity="0" result="BackgroundImageFix"/>
<feColorMatrix in="SourceAlpha" type="matrix" values="0 0 0 0 0 0 0 0 0 0 0 0 0 0 0 0 0 0 127 0" result="hardAlpha"/>
<feOffset dx="0.5" dy="0.5"/>
<feComposite in2="hardAlpha" operator="out"/>
<feColorMatrix type="matrix" values="0 0 0 0 0 0 0 0 0 0 0 0 0 0 0 0 0 0 0.25 0"/>
<feBlend mode="normal" in2="BackgroundImageFix" result="effect1_dropShadow_67_779"/>
<feBlend mode="normal" in="SourceGraphic" in2="effect1_dropShadow_67_779" result="shape"/>
</filter>
<clipPath id="clip0_67_779">
<rect width="180" height="180" fill="white"/>
</clipPath>
</defs>
</svg>
