<svg width="180" height="180" viewBox="0 0 180 180" fill="none" xmlns="http://www.w3.org/2000/svg">
<g clip-path="url(#clip0_67_862)">
<path d="M90 180C139.706 180 180 139.706 180 90C180 40.2944 139.706 0 90 0C40.2944 0 0 40.2944 0 90C0 139.706 40.2944 180 90 180Z" fill="#627EEA"/>
<g filter="url(#filter0_d_67_862)">
<path d="M90.373 35V75.6626L124.741 91.02L90.373 35Z" fill="white" fill-opacity="0.602"/>
<path d="M90.373 35L56 91.02L90.373 75.6626V35Z" fill="white"/>
<path d="M90.373 117.37V145L124.764 97.4196L90.373 117.37Z" fill="white" fill-opacity="0.602"/>
<path d="M90.373 145V117.366L56 97.4196L90.373 145Z" fill="white"/>
<path d="M90.373 110.975L124.741 91.02L90.373 75.6718V110.975Z" fill="white" fill-opacity="0.2"/>
<path d="M56 91.02L90.373 110.975V75.6718L56 91.02Z" fill="white" fill-opacity="0.602"/>
</g>
</g>
<defs>
<filter id="filter0_d_67_862" x="56" y="35" width="69.2643" height="110.5" filterUnits="userSpaceOnUse" color-interpolation-filters="sRGB">
<feFlood flood-opacity="0" result="BackgroundImageFix"/>
<feColorMatrix in="SourceAlpha" type="matrix" values="0 0 0 0 0 0 0 0 0 0 0 0 0 0 0 0 0 0 127 0" result="hardAlpha"/>
<feOffset dx="0.5" dy="0.5"/>
<feComposite in2="hardAlpha" operator="out"/>
<feColorMatrix type="matrix" values="0 0 0 0 0 0 0 0 0 0 0 0 0 0 0 0 0 0 0.25 0"/>
<feBlend mode="normal" in2="BackgroundImageFix" result="effect1_dropShadow_67_862"/>
<feBlend mode="normal" in="SourceGraphic" in2="effect1_dropShadow_67_862" result="shape"/>
</filter>
<clipPath id="clip0_67_862">
<rect width="180" height="180" fill="white"/>
</clipPath>
</defs>
</svg>
