<svg width="180" height="180" viewBox="0 0 180 180" fill="none" xmlns="http://www.w3.org/2000/svg">
<g clip-path="url(#clip0_79_594)">
<circle cx="90" cy="90" r="90" fill="#13B5EC"/>
<path d="M63 87.5L86.5 74" stroke="white" stroke-width="7"/>
<path d="M117 87.5L93.5 74" stroke="white" stroke-width="7"/>
<path d="M90 72V106.5" stroke="white" stroke-width="7"/>
<path d="M119 87.5L90 104L61 87.5" stroke="white" stroke-width="2"/>
<path d="M118 58.5L90 75L62 58.5" stroke="white" stroke-width="2"/>
<path d="M62 55.5V90" stroke="white" stroke-width="2"/>
<path d="M118 55.5V90.5" stroke="white" stroke-width="2"/>
<path d="M119.269 56.6538L121.5 55.3393V86.9621L118.252 88.8339L90 105.115L61.7482 88.8339L58.5 86.9621V55.6519L60.2474 56.6636L88.7474 73.1636L90.0112 73.8952L91.2692 73.1538L119.269 56.6538ZM88.7518 110.166L90 110.885L91.2482 110.166L117 95.3261V122.576L90 138.593L63 122.576V95.3261L88.7518 110.166ZM89.9891 41.3731L113.019 54.5333L89.9888 68.1048L66.5474 54.5334L89.9891 41.3731Z" stroke="white" stroke-width="5"/>
</g>
<defs>
<clipPath id="clip0_79_594">
<rect width="180" height="180" fill="white"/>
</clipPath>
</defs>
</svg>
