<svg width="180" height="180" viewBox="0 0 180 180" fill="none" xmlns="http://www.w3.org/2000/svg">
<g clip-path="url(#clip0_67_970)">
<circle cx="90" cy="90" r="90" fill="#8345E6"/>
<g filter="url(#filter0_d_67_970)">
<path d="M64.603 46.7028L43.0318 58.9817C41.1575 60.0487 40 62.0394 40 64.1961V89.5293C40 91.6612 41.1313 93.6331 42.9718 94.7091L64.551 107.325C66.4298 108.423 68.7559 108.418 70.6299 107.311L109.132 84.5766C111.007 83.4695 113.335 83.465 115.214 84.565L126.607 91.2338C128.445 92.3102 129.575 94.2811 129.575 96.4119V109.909C129.575 112.04 128.445 114.011 126.607 115.087L115.201 121.763C113.329 122.859 111.011 122.859 109.139 121.763L97.7331 115.087C95.8942 114.011 94.7642 112.04 94.7642 109.909V101.462L88.2246 104.874C86.2427 105.908 85 107.958 85 110.194V115.831C85 117.973 86.1423 119.953 87.997 121.025L109.208 133.287C111.044 134.349 113.304 134.362 115.152 133.322L136.281 121.437C138.17 120.375 139.34 118.376 139.34 116.208V90.4901C139.34 88.3477 138.197 86.3679 136.343 85.2957L115.205 73.0754C113.33 71.9914 111.016 72.002 109.151 73.1032L70.6947 95.8108C68.7864 96.9376 66.4124 96.9208 64.5203 95.7671L53.065 88.7822C51.2786 87.6929 50.1887 85.7517 50.1887 83.6594V70.0911C50.1887 67.9604 51.3187 65.9895 53.1576 64.913L64.5255 58.2587C66.4177 57.151 68.7634 57.1637 70.6435 58.2918L81.6624 64.9031C83.4697 65.9875 84.5755 67.9405 84.5755 70.0481V79.3868L91.7874 75.1798C93.6307 74.1046 94.7642 72.1312 94.7642 69.9972V64.1693C94.7642 62.027 93.6219 60.0472 91.7672 58.9749L70.5742 46.7227C68.7287 45.6558 66.4556 45.6482 64.603 46.7028Z" fill="white" stroke="white"/>
</g>
</g>
<defs>
<filter id="filter0_d_67_970" x="39.5" y="45.4172" width="100.84" height="89.6758" filterUnits="userSpaceOnUse" color-interpolation-filters="sRGB">
<feFlood flood-opacity="0" result="BackgroundImageFix"/>
<feColorMatrix in="SourceAlpha" type="matrix" values="0 0 0 0 0 0 0 0 0 0 0 0 0 0 0 0 0 0 127 0" result="hardAlpha"/>
<feOffset dx="0.5" dy="0.5"/>
<feComposite in2="hardAlpha" operator="out"/>
<feColorMatrix type="matrix" values="0 0 0 0 0 0 0 0 0 0 0 0 0 0 0 0 0 0 0.25 0"/>
<feBlend mode="normal" in2="BackgroundImageFix" result="effect1_dropShadow_67_970"/>
<feBlend mode="normal" in="SourceGraphic" in2="effect1_dropShadow_67_970" result="shape"/>
</filter>
<clipPath id="clip0_67_970">
<rect width="180" height="180" fill="white"/>
</clipPath>
</defs>
</svg>
