<?xml version="1.0" standalone="no"?>
<!DOCTYPE svg PUBLIC "-//W3C//DTD SVG 20010904//EN"
 "http://www.w3.org/TR/2001/REC-SVG-20010904/DTD/svg10.dtd">
<svg version="1.0" xmlns="http://www.w3.org/2000/svg"
 width="2048.000000pt" height="2048.000000pt" viewBox="0 0 2048.000000 2048.000000"
 preserveAspectRatio="xMidYMid meet">

<g transform="translate(0.000000,2048.000000) scale(0.100000,-0.100000)"
fill="#000000" stroke="none">
<path d="M9770 19454 c-25 -2 -115 -8 -200 -14 -2475 -173 -4796 -1361 -6407
-3281 -1164 -1388 -1897 -3110 -2092 -4915 -41 -378 -46 -480 -46 -1004 0
-524 5 -626 46 -1004 256 -2365 1418 -4536 3250 -6073 1388 -1164 3110 -1897
4915 -2092 378 -41 480 -46 1004 -46 524 0 626 5 1004 46 1805 195 3527 928
4915 2092 404 339 794 728 1135 1132 1176 1390 1919 3125 2115 4941 41 378 46
480 46 1004 0 524 -5 626 -46 1004 -195 1805 -928 3527 -2092 4915 -339 404
-728 794 -1132 1135 -1376 1164 -3089 1903 -4890 2110 -356 41 -490 48 -985
51 -272 1 -515 1 -540 -1z m5529 -4826 c30 -8 56 -19 58 -25 2 -5 -267 -752
-597 -1659 -631 -1729 -648 -1773 -777 -1967 -64 -95 -208 -244 -310 -321
-252 -189 -469 -269 -728 -268 -260 0 -488 73 -717 228 -80 54 -284 221 -321
261 -17 20 -16 20 40 0 153 -55 342 3 402 122 10 20 31 74 46 121 77 235 719
2089 754 2178 112 281 279 548 446 717 149 151 371 302 645 439 206 102 353
153 550 190 56 10 456 -3 509 -16z m-7579 -4539 c189 -30 410 -123 572 -241
98 -72 342 -278 336 -284 -3 -2 -31 7 -64 20 -151 61 -312 34 -401 -67 -33
-38 -39 -53 -189 -497 -200 -594 -617 -1785 -661 -1889 -126 -295 -253 -494
-436 -680 -111 -112 -199 -181 -372 -288 -390 -241 -693 -343 -1023 -343 -113
0 -282 17 -358 36 l-23 6 31 81 c16 45 47 132 68 192 21 61 88 245 148 410
183 498 603 1650 784 2150 178 491 233 617 350 797 196 302 584 560 903 601
66 9 274 6 335 -4z"/>
</g>
</svg>
