<svg width="280" height="280" viewBox="0 0 280 280" fill="none" xmlns="http://www.w3.org/2000/svg">
<rect width="280" height="280" fill="#D7EEFE"/>
<rect x="163.307" y="36.9155" width="107.207" height="64.6762" rx="8" fill="#FCFCFC"/>
<path d="M250.968 60.5969V66.766" stroke="#BBB9C6"/>
<path d="M250.968 72.5374V78.7065" stroke="#BBB9C6"/>
<path d="M250.968 84.4773V90.6464" stroke="#BBB9C6"/>
<path d="M250.968 96.4175V101.592" stroke="#BBB9C6"/>
<path d="M233.989 77.7112V83.8803" stroke="#BBB9C6"/>
<path d="M233.989 88.6565V94.8256" stroke="#BBB9C6"/>
<path d="M233.989 97.8105V101.592" stroke="#BBB9C6"/>
<path d="M222.833 73.1345V79.3036" stroke="#BBB9C6"/>
<path d="M222.833 85.0745V91.2437" stroke="#BBB9C6"/>
<path d="M222.833 97.0149V101.592" stroke="#BBB9C6"/>
<path d="M193.811 80.0996V86.2687" stroke="#BBB9C6"/>
<path d="M193.811 88.6567V94.8259" stroke="#BBB9C6"/>
<path d="M193.811 97.0146V101.592" stroke="#BBB9C6"/>
<path d="M206.052 89.2534V94.6266" stroke="#BBB9C6"/>
<path d="M206.052 98.2087V101.592" stroke="#BBB9C6"/>
<path d="M181.57 89.2534V94.6266" stroke="#BBB9C6"/>
<path d="M181.57 98.2087V101.592" stroke="#BBB9C6"/>
<path d="M189.566 20.0303C189.566 16.7166 192.252 14.0303 195.566 14.0303H226.607C229.92 14.0303 232.607 16.7166 232.607 20.0303V41.4629C232.607 44.7766 229.92 47.4629 226.607 47.4629H206.186C205.777 47.4629 205.378 47.5881 205.043 47.8217L194.699 55.025V48.7462C194.699 48.0375 194.125 47.4629 193.416 47.4629V47.4629C191.29 47.4629 189.566 45.7392 189.566 43.6129V20.0303Z" fill="#D7CAEC"/>
<path d="M202.043 26.0625C202.043 24.5234 202.379 23.3828 203.051 22.6406C203.73 21.8984 204.648 21.5273 205.805 21.5273C207 21.5273 207.934 21.8984 208.605 22.6406C209.285 23.375 209.625 24.5156 209.625 26.0625C209.625 27.6016 209.285 28.7422 208.605 29.4844C207.934 30.2266 207.02 30.5977 205.863 30.5977C204.668 30.5977 203.73 30.2305 203.051 29.4961C202.379 28.7539 202.043 27.6094 202.043 26.0625ZM204.609 26.0391C204.609 27.1562 204.738 27.9062 204.996 28.2891C205.191 28.5703 205.461 28.7109 205.805 28.7109C206.156 28.7109 206.43 28.5703 206.625 28.2891C206.875 27.9062 207 27.1562 207 26.0391C207 24.9219 206.875 24.1758 206.625 23.8008C206.43 23.5117 206.156 23.3672 205.805 23.3672C205.461 23.3672 205.191 23.5078 204.996 23.7891C204.738 24.1719 204.609 24.9219 204.609 26.0391ZM208.312 39.6562H205.875L215.027 21.5273H217.395L208.312 39.6562ZM213.633 35.1445C213.633 33.6055 213.969 32.4648 214.641 31.7227C215.32 30.9805 216.246 30.6094 217.418 30.6094C218.598 30.6094 219.523 30.9805 220.195 31.7227C220.875 32.4648 221.215 33.6055 221.215 35.1445C221.215 36.6914 220.875 37.8359 220.195 38.5781C219.523 39.3203 218.609 39.6914 217.453 39.6914C216.258 39.6914 215.32 39.3203 214.641 38.5781C213.969 37.8359 213.633 36.6914 213.633 35.1445ZM216.199 35.1328C216.199 36.25 216.328 36.9961 216.586 37.3711C216.781 37.6602 217.051 37.8047 217.395 37.8047C217.746 37.8047 218.016 37.6641 218.203 37.3828C218.461 37 218.59 36.25 218.59 35.1328C218.59 34.0156 218.465 33.2656 218.215 32.8828C218.02 32.6016 217.746 32.4609 217.395 32.4609C217.043 32.4609 216.773 32.6016 216.586 32.8828C216.328 33.2656 216.199 34.0156 216.199 35.1328Z" fill="#5E09AC"/>
<path d="M254 60.7179L240.809 50.8782L254 48.594V60.7179ZM245.145 55.3605L248.419 57.8026L233.389 75.5397L223.019 67.6766L222.644 67.3923L222.338 67.7493L206.182 86.5679L194.331 77.3208L194.023 77.0801L193.715 77.3217L180.101 88.0044L175.617 86.9135L193.836 72.5793L205.263 80.9996L205.643 81.2794L205.945 80.9167L221.908 61.7068L232.373 69.6656L232.75 69.9523L233.057 69.5913L245.145 55.3605Z" fill="#5E09AC" stroke="#5E09AC"/>
<ellipse cx="259.478" cy="26.1074" rx="3.15315" ry="3.17821" fill="url(#paint0_linear_182_202)"/>
<path d="M41.328 6L41.0697 7.0412C41.0193 7.24437 40.9942 7.34596 40.9417 7.42862C40.8953 7.50174 40.8336 7.56383 40.7611 7.61062C40.6791 7.66352 40.5783 7.6889 40.3767 7.7397L39.3438 8L40.3767 8.2603C40.5783 8.3111 40.6791 8.33648 40.7611 8.38938C40.8336 8.43616 40.8953 8.49826 40.9417 8.57138C40.9942 8.65404 41.0193 8.75564 41.0697 8.9588L41.328 10L41.5862 8.9588C41.6366 8.75564 41.6618 8.65404 41.7143 8.57138C41.7607 8.49826 41.8223 8.43616 41.8949 8.38938C41.9769 8.33648 42.0777 8.3111 42.2792 8.2603L43.3122 8L42.2792 7.7397C42.0777 7.6889 41.9769 7.66352 41.8949 7.61062C41.8223 7.56383 41.7607 7.50174 41.7143 7.42862C41.6618 7.34596 41.6366 7.24437 41.5862 7.0412L41.328 6Z" fill="url(#paint1_linear_182_202)" stroke="url(#paint2_linear_182_202)" stroke-width="0.1" stroke-linecap="round" stroke-linejoin="round"/>
<path d="M10.5144 102.931C10.5144 98.5129 14.0961 94.9312 18.5144 94.9312H109.722C114.14 94.9312 117.722 98.5129 117.722 102.931V151.607C117.722 156.026 114.14 159.607 109.722 159.607H18.5144C14.0961 159.607 10.5144 156.026 10.5144 151.607V102.931Z" fill="#FCFCFC"/>
<path d="M14.4629 110.056H18.4116" stroke="#BBB9C6"/>
<path d="M10.5144 110.056H12.4888" stroke="#BBB9C6"/>
<path d="M20.3862 110.056H24.3349" stroke="#BBB9C6"/>
<path d="M26.3091 110.056H27.0988" stroke="#BBB9C6"/>
<path d="M14.4629 137.319H18.4116" stroke="#BBB9C6"/>
<path d="M10.5144 137.319H12.4888" stroke="#BBB9C6"/>
<path d="M20.3862 137.319H24.3349" stroke="#BBB9C6"/>
<path d="M26.3091 137.319H30.2578" stroke="#BBB9C6"/>
<path d="M32.2322 137.319H36.1809" stroke="#BBB9C6"/>
<path d="M38.1553 137.319H42.104" stroke="#BBB9C6"/>
<path d="M44.0784 137.319H48.0271" stroke="#BBB9C6"/>
<path d="M50.0015 137.319H53.9502" stroke="#BBB9C6"/>
<path d="M55.9243 137.319H59.873" stroke="#BBB9C6"/>
<path d="M61.8474 137.319H65.0064" stroke="#BBB9C6"/>
<path d="M16.4375 120.404H20.3862" stroke="#BBB9C6"/>
<path d="M10.5144 120.404H14.4631" stroke="#BBB9C6"/>
<path d="M22.3604 120.404H26.3091" stroke="#BBB9C6"/>
<path d="M28.2837 120.404H32.2324" stroke="#BBB9C6"/>
<path d="M34.2065 120.404H38.1552" stroke="#BBB9C6"/>
<path d="M40.1296 120.404H44.0783" stroke="#BBB9C6"/>
<path d="M12.094 128.762H16.0427" stroke="#BBB9C6"/>
<path d="M18.0171 128.762H21.9658" stroke="#BBB9C6"/>
<path d="M23.9399 128.762H27.8886" stroke="#BBB9C6"/>
<path d="M29.863 128.762H33.8117" stroke="#BBB9C6"/>
<path d="M35.7861 128.762H39.7348" stroke="#BBB9C6"/>
<path d="M41.7092 128.762H45.6579" stroke="#BBB9C6"/>
<path d="M47.6323 128.762H51.581" stroke="#BBB9C6"/>
<path d="M53.5552 128.762H57.5039" stroke="#BBB9C6"/>
<path d="M11.1067 147.269H15.0554" stroke="#BBB9C6"/>
<path d="M17.0298 147.269H20.9785" stroke="#BBB9C6"/>
<path d="M22.9529 147.269H26.9016" stroke="#BBB9C6"/>
<path d="M28.8757 147.269H32.8244" stroke="#BBB9C6"/>
<path d="M34.7991 147.269H38.7478" stroke="#BBB9C6"/>
<path d="M40.7219 147.269H44.6706" stroke="#BBB9C6"/>
<path d="M46.645 147.269H50.5937" stroke="#BBB9C6"/>
<path d="M52.5679 147.269H56.5166" stroke="#BBB9C6"/>
<path d="M64.4143 147.269H68.363" stroke="#BBB9C6"/>
<path d="M70.3372 147.269H74.2859" stroke="#BBB9C6"/>
<path d="M76.2603 147.269H80.209" stroke="#BBB9C6"/>
<path d="M16.4375 153.24H20.3862" stroke="#BBB9C6"/>
<path d="M10.5144 153.24H14.4631" stroke="#BBB9C6"/>
<path d="M22.3604 153.24H26.3091" stroke="#BBB9C6"/>
<path d="M28.2837 153.24H32.2324" stroke="#BBB9C6"/>
<path d="M34.2065 153.24H38.1552" stroke="#BBB9C6"/>
<path d="M40.1296 153.24H44.0783" stroke="#BBB9C6"/>
<path d="M46.0527 153.24H50.0014" stroke="#BBB9C6"/>
<path d="M51.9758 153.24H55.9245" stroke="#BBB9C6"/>
<path d="M57.8987 153.24H61.8474" stroke="#BBB9C6"/>
<path d="M63.8218 153.24H67.7705" stroke="#BBB9C6"/>
<path d="M69.7449 153.24H73.6936" stroke="#BBB9C6"/>
<path d="M75.668 153.24H79.6167" stroke="#BBB9C6"/>
<path d="M81.5911 153.24H85.5398" stroke="#BBB9C6"/>
<path d="M87.5139 153.24H91.4626" stroke="#BBB9C6"/>
<path d="M93.437 153.24H97.3857" stroke="#BBB9C6"/>
<rect x="19.8989" y="110.157" width="12.0307" height="47.9549" fill="#FFC316" stroke="#FFC316"/>
<rect x="35.4963" y="120.506" width="12.0307" height="37.6067" fill="#FFC316" stroke="#FFC316"/>
<rect x="50.6987" y="128.864" width="12.0307" height="29.2486" fill="#FFC316" stroke="#FFC316"/>
<rect x="65.9014" y="137.421" width="12.0307" height="20.6914" fill="#FFC316" stroke="#FFC316"/>
<rect x="81.1038" y="147.371" width="12.0307" height="10.7412" fill="#FFC316" stroke="#FFC316"/>
<rect x="96.3062" y="153.341" width="12.0307" height="4.77111" fill="#FFC316" stroke="#FFC316"/>
<path d="M74.2085 62.3003C74.2085 58.9866 71.5222 56.3003 68.2085 56.3003H32.8636C29.5499 56.3003 26.8636 58.9866 26.8636 62.3003V87.0762C26.8636 90.3899 29.5499 93.0762 32.8636 93.0762H55.9892C56.3979 93.0762 56.7968 93.2014 57.1322 93.4349L68.5619 101.395V94.4878C68.5619 93.7082 69.1939 93.0762 69.9735 93.0762V93.0762C72.3124 93.0762 74.2085 91.1801 74.2085 88.8412V62.3003Z" fill="#D7CAEC"/>
<path d="M41.043 70.0625C41.043 68.5234 41.3789 67.3828 42.0508 66.6406C42.7305 65.8984 43.6484 65.5273 44.8047 65.5273C46 65.5273 46.9336 65.8984 47.6055 66.6406C48.2852 67.375 48.625 68.5156 48.625 70.0625C48.625 71.6016 48.2852 72.7422 47.6055 73.4844C46.9336 74.2266 46.0195 74.5977 44.8633 74.5977C43.668 74.5977 42.7305 74.2305 42.0508 73.4961C41.3789 72.7539 41.043 71.6094 41.043 70.0625ZM43.6094 70.0391C43.6094 71.1562 43.7383 71.9062 43.9961 72.2891C44.1914 72.5703 44.4609 72.7109 44.8047 72.7109C45.1562 72.7109 45.4297 72.5703 45.625 72.2891C45.875 71.9062 46 71.1562 46 70.0391C46 68.9219 45.875 68.1758 45.625 67.8008C45.4297 67.5117 45.1562 67.3672 44.8047 67.3672C44.4609 67.3672 44.1914 67.5078 43.9961 67.7891C43.7383 68.1719 43.6094 68.9219 43.6094 70.0391ZM47.3125 83.6562H44.875L54.0273 65.5273H56.3945L47.3125 83.6562ZM52.6328 79.1445C52.6328 77.6055 52.9688 76.4648 53.6406 75.7227C54.3203 74.9805 55.2461 74.6094 56.418 74.6094C57.5977 74.6094 58.5234 74.9805 59.1953 75.7227C59.875 76.4648 60.2148 77.6055 60.2148 79.1445C60.2148 80.6914 59.875 81.8359 59.1953 82.5781C58.5234 83.3203 57.6094 83.6914 56.4531 83.6914C55.2578 83.6914 54.3203 83.3203 53.6406 82.5781C52.9688 81.8359 52.6328 80.6914 52.6328 79.1445ZM55.1992 79.1328C55.1992 80.25 55.3281 80.9961 55.5859 81.3711C55.7812 81.6602 56.0508 81.8047 56.3945 81.8047C56.7461 81.8047 57.0156 81.6641 57.2031 81.3828C57.4609 81 57.5898 80.25 57.5898 79.1328C57.5898 78.0156 57.4648 77.2656 57.2148 76.8828C57.0195 76.6016 56.7461 76.4609 56.3945 76.4609C56.043 76.4609 55.7734 76.6016 55.5859 76.8828C55.3281 77.2656 55.1992 78.0156 55.1992 79.1328Z" fill="#5E09AC"/>
<ellipse cx="16.5054" cy="77.2763" rx="4.72973" ry="4.76731" fill="url(#paint3_linear_182_202)"/>
<path d="M180.736 26L180.51 26.911C180.466 27.0888 180.444 27.1777 180.398 27.25C180.358 27.314 180.304 27.3684 180.24 27.4093C180.168 27.4556 180.08 27.4778 179.904 27.5222L179 27.75L179.904 27.9778C180.08 28.0222 180.168 28.0444 180.24 28.0907C180.304 28.1316 180.358 28.186 180.398 28.25C180.444 28.3223 180.466 28.4112 180.51 28.589L180.736 29.5L180.962 28.589C181.006 28.4112 181.028 28.3223 181.074 28.25C181.115 28.186 181.169 28.1316 181.232 28.0907C181.304 28.0444 181.392 28.0222 181.569 27.9778L182.472 27.75L181.569 27.5222C181.392 27.4778 181.304 27.4556 181.232 27.4093C181.169 27.3684 181.115 27.314 181.074 27.25C181.028 27.1777 181.006 27.0888 180.962 26.911L180.736 26Z" fill="url(#paint4_linear_182_202)" stroke="url(#paint5_linear_182_202)" stroke-width="0.1" stroke-linecap="round" stroke-linejoin="round"/>
<path d="M75.7362 53L75.5102 53.911C75.4661 54.0888 75.4441 54.1777 75.3982 54.25C75.3576 54.314 75.3037 54.3684 75.2402 54.4093C75.1684 54.4556 75.0802 54.4778 74.9039 54.5222L74 54.75L74.9039 54.9778C75.0802 55.0222 75.1684 55.0444 75.2402 55.0907C75.3037 55.1316 75.3576 55.186 75.3982 55.25C75.4441 55.3223 75.4661 55.4112 75.5102 55.589L75.7362 56.5L75.9622 55.589C76.0063 55.4112 76.0283 55.3223 76.0742 55.25C76.1148 55.186 76.1687 55.1316 76.2322 55.0907C76.304 55.0444 76.3922 55.0222 76.5685 54.9778L77.4724 54.75L76.5685 54.5222C76.3922 54.4778 76.304 54.4556 76.2322 54.4093C76.1687 54.3684 76.1148 54.314 76.0742 54.25C76.0283 54.1777 76.0063 54.0888 75.9622 53.911L75.7362 53Z" fill="url(#paint6_linear_182_202)" stroke="url(#paint7_linear_182_202)" stroke-width="0.1" stroke-linecap="round" stroke-linejoin="round"/>
<ellipse cx="139.757" cy="256.713" rx="98.7568" ry="12.7128" fill="#D7CAEC"/>
<ellipse cx="10.0582" cy="10.086" rx="10.0582" ry="10.086" transform="matrix(0.785663 0.618654 -0.610031 0.792377 157.617 117.687)" fill="#B38A24"/>
<path d="M164.45 136.738C161.427 140.664 155.833 141.365 151.957 138.313C148.081 135.261 147.382 129.604 150.405 125.678C153.428 121.751 159.022 121.05 162.898 124.102C166.774 127.155 167.474 132.811 164.45 136.738Z" fill="#FBE763" stroke="#FFC316" stroke-width="2.5"/>
<path d="M159.326 127.614L160.074 126.641M161.249 129.128L161.998 128.156M161.249 129.128L157.883 126.478M161.249 129.128C162.046 129.756 162.189 130.917 161.568 131.723C160.948 132.529 159.799 132.673 159.003 132.046M154.352 133.071L156.598 130.153M156.598 130.153L158.845 127.235M156.598 130.153L159.484 132.425C160.28 133.052 160.423 134.214 159.803 135.019C159.183 135.825 158.034 135.97 157.237 135.342L153.39 132.313M154.084 134.422L154.833 133.449M156.007 135.936L156.756 134.964" stroke="#B28923" stroke-linecap="round" stroke-linejoin="round"/>
<path d="M158.684 127.109L159.433 126.136M160.608 128.624L161.357 127.651M160.608 128.624L157.242 125.973M160.608 128.624C161.405 129.251 161.547 130.413 160.927 131.218C160.307 132.024 159.158 132.169 158.361 131.541M153.71 132.566L155.957 129.648M155.957 129.648L158.203 126.73M155.957 129.648L158.842 131.92C159.639 132.547 159.782 133.709 159.162 134.515C158.541 135.321 157.392 135.465 156.596 134.838L152.749 131.809M153.442 133.917L154.191 132.945M155.366 135.432L156.115 134.459" stroke="#FEC10F" stroke-linecap="round" stroke-linejoin="round"/>
<ellipse cx="131.365" cy="111.451" rx="12.1396" ry="12.2773" fill="#B38A24"/>
<path d="M139.798 112.248C139.798 118.304 134.948 123.185 129.001 123.185C123.053 123.185 118.203 118.304 118.203 112.248C118.203 106.192 123.053 101.312 129.001 101.312C134.948 101.312 139.798 106.192 139.798 112.248Z" fill="#FBE763" stroke="#FFC316" stroke-width="3"/>
<path d="M127.794 108.304V107M130.372 108.304V107M130.372 108.304H125.86M130.372 108.304C131.44 108.304 132.306 109.179 132.306 110.259C132.306 111.339 131.44 112.215 130.372 112.215M127.149 116.126V112.215M127.149 112.215V108.304M127.149 112.215H131.016C132.084 112.215 132.95 113.091 132.95 114.171C132.95 115.251 132.084 116.126 131.016 116.126H125.86M127.794 117.43V116.126M130.372 117.43V116.126" stroke="#B28923" stroke-linecap="round" stroke-linejoin="round"/>
<path d="M126.934 108.304V107M129.512 108.304V107M129.512 108.304H125M129.512 108.304C130.58 108.304 131.446 109.179 131.446 110.259C131.446 111.339 130.58 112.215 129.512 112.215M126.289 116.126V112.215M126.289 112.215V108.304M126.289 112.215H130.157C131.225 112.215 132.09 113.091 132.09 114.171C132.09 115.251 131.225 116.126 130.157 116.126H125M126.934 117.43V116.126M129.512 117.43V116.126" stroke="#FEC10F" stroke-linecap="round" stroke-linejoin="round"/>
<ellipse cx="15.1782" cy="15.343" rx="15.1782" ry="15.343" transform="matrix(0.989106 -0.147204 0.143992 0.989579 128.742 148.542)" fill="#B38A24"/>
<path d="M156.907 160.869C158.026 168.559 152.77 175.682 145.205 176.807C137.64 177.933 130.578 172.644 129.459 164.954C128.34 157.264 133.597 150.142 141.161 149.016C148.726 147.89 155.788 153.179 156.907 160.869Z" fill="#FBE763" stroke="#FFC316" stroke-width="3"/>
<path d="M141.041 157.806L140.784 156.04M144.534 157.286L144.277 155.52M144.534 157.286L138.421 158.196M144.534 157.286C145.981 157.071 147.327 158.082 147.54 159.546C147.753 161.009 146.752 162.37 145.305 162.585M141.71 168.534L140.939 163.235M140.939 163.235L140.168 157.936M140.939 163.235L146.179 162.455C147.626 162.24 148.971 163.252 149.184 164.715C149.397 166.178 148.397 167.539 146.95 167.755L139.963 168.794M142.84 170.171L142.583 168.404M146.333 169.651L146.076 167.884" stroke="#B28923" stroke-width="2" stroke-linecap="round" stroke-linejoin="round"/>
<path d="M139.877 157.979L139.62 156.213M143.37 157.459L143.113 155.693M143.37 157.459L137.257 158.369M143.37 157.459C144.817 157.244 146.163 158.256 146.376 159.719C146.589 161.183 145.588 162.543 144.141 162.759M140.546 168.708L139.775 163.408M139.775 163.408L139.004 158.109M139.775 163.408L145.015 162.629C146.462 162.413 147.807 163.425 148.02 164.888C148.233 166.352 147.233 167.713 145.786 167.928L138.799 168.968M141.676 170.344L141.419 168.578M145.169 169.824L144.912 168.058" stroke="#FEC10F" stroke-width="2" stroke-linecap="round" stroke-linejoin="round"/>
<path d="M178.877 167.417H110.307C104.932 167.417 99.9158 170.116 96.9543 174.601L86.1177 191.015H203.1L192.216 174.582C189.253 170.107 184.244 167.417 178.877 167.417Z" fill="#D7CAEC" stroke="#D7CAEC"/>
<g clip-path="url(#clip0_182_202)">
<path d="M175.822 161.996H-62.5075C-68.0103 161.996 -73.127 164.824 -76.0549 169.483L-117.85 235.996H231.295L189.357 169.464C186.427 164.816 181.317 161.996 175.822 161.996Z" fill="#5E09AC" stroke="#5E09AC"/>
</g>
<g clip-path="url(#clip1_182_202)">
<path d="M351.759 161.996H113.429C107.926 161.996 102.809 164.824 99.8817 169.483L58.0864 235.996H407.232L365.294 169.464C362.364 164.816 357.253 161.996 351.759 161.996Z" fill="#5E09AC" stroke="#5E09AC"/>
</g>
<path d="M198.987 189.101H89.9618C84.5305 189.101 79.4702 191.856 76.5227 196.418L74.4512 199.624H214.451L212.515 196.559C209.584 191.916 204.477 189.101 198.987 189.101Z" fill="#D7CAEC" stroke="#D7CAEC"/>
<path d="M200.295 191.014H88.6568C83.2387 191.014 78.1886 193.756 75.2378 198.3L73.0322 201.697H215.87L213.804 198.441C210.869 193.816 205.772 191.014 200.295 191.014Z" fill="#5E09AC" stroke="#5E09AC"/>
<path d="M106.108 254.474H183.741C191.42 254.474 198.421 250.077 201.756 243.159L214.136 217.482H75.7123L88.0921 243.159C91.4271 250.077 98.4282 254.474 106.108 254.474Z" fill="#D7CAEC" stroke="#D7CAEC"/>
<path d="M108.181 259.735H181.667C189.45 259.735 196.526 255.22 199.805 248.162L211.613 222.744H78.2349L90.0429 248.162C93.322 255.22 100.398 259.735 108.181 259.735Z" fill="#5E09AC" stroke="#5E09AC"/>
<path d="M181.816 249.53H108.032L93.458 217.641H196.405L181.816 249.53Z" fill="#57068E" stroke="#57068E"/>
<path d="M170.094 255.43H119.192L105.383 224.497H184.811L170.094 255.43Z" fill="#A80CD4" stroke="#A80CD4"/>
<path d="M68.3296 202.356H221.519V207.931C221.519 211.521 218.609 214.431 215.019 214.431H74.8296C71.2397 214.431 68.3296 211.521 68.3296 207.931V202.356Z" fill="#D7CAEC" stroke="#D7CAEC"/>
<path d="M68.3296 204.907H221.519V210.482C221.519 214.072 218.609 216.982 215.019 216.982H74.8296C71.2397 216.982 68.3296 214.072 68.3296 210.482V204.907Z" fill="#5E09AC" stroke="#5E09AC"/>
<path d="M172.83 167.576H116.388L102.83 189.101H186.073L172.83 167.576Z" fill="#57068E" stroke="#480090"/>
<path d="M164.527 167.576H124.429L114.023 184.158H174.879L164.527 167.576Z" fill="#A80CD4" stroke="#5626B6"/>
<path d="M158.262 191.174H137.839C136.646 191.174 135.527 191.751 134.835 192.723C133.744 194.255 133.449 196.215 134.04 198L141.522 220.586C142.761 224.324 145.788 227.194 149.587 228.23L150.588 228.504C152.436 229.008 154.398 228.888 156.171 228.163C159.136 226.951 161.416 224.493 162.403 221.445L167.121 206.865C168.518 202.547 167.64 197.816 164.785 194.287C163.192 192.318 160.795 191.174 158.262 191.174Z" fill="#CC64BF" stroke="#CC64BF"/>
<path d="M141.497 220.61L136.697 206.365C136.479 205.717 136.961 205.045 137.645 205.045H167.568C167.635 205.045 167.684 205.112 167.663 205.176L162.402 221.444C161.416 224.493 159.136 226.951 156.171 228.164C154.398 228.888 152.436 229.008 150.589 228.504L149.573 228.226C145.78 227.191 142.752 224.336 141.497 220.61Z" fill="#A330A5" stroke="#A330A5"/>
<path d="M159.021 191.174H130.902C129.709 191.174 128.59 191.751 127.898 192.723C126.807 194.255 126.512 196.215 127.104 198L135.131 222.232C136.049 225.002 138.064 227.273 140.705 228.513L140.894 228.602C143.736 229.936 147.035 229.888 149.837 228.471C152.244 227.254 154.071 225.133 154.92 222.573L162.977 198.251C163.616 196.322 163.242 194.2 161.981 192.606C161.265 191.702 160.175 191.174 159.021 191.174Z" fill="#C786D3" stroke="#C786D3"/>
<rect x="142.559" y="193.565" width="4.72973" height="17.8578" rx="2.36486" fill="#1A2935"/>
<rect x="139.514" y="206.727" width="13.3423" height="19.279" rx="6.67117" stroke="#A330A5" stroke-width="4"/>
<rect x="133.1" y="219.077" width="26.1712" height="19.7712" rx="4" fill="#A330A5"/>
<rect x="136.992" y="204.494" width="13.3423" height="19.279" rx="6.67117" stroke="#FFE85E" stroke-width="4"/>
<rect x="130.577" y="216.844" width="26.1712" height="19.7712" rx="4" fill="#FCD337"/>
<path d="M146.343 224.658C146.343 225.757 145.696 226.703 144.766 227.129C144.43 227.283 144.056 230.876 143.663 230.876C143.269 230.876 142.896 227.283 142.559 227.129C141.63 226.703 140.983 225.757 140.983 224.658C140.983 223.161 142.183 221.947 143.663 221.947C145.143 221.947 146.343 223.161 146.343 224.658Z" fill="#A330A5"/>
<path d="M144.767 227.049H142.559V230.876H144.767V227.049Z" fill="#A330A5" stroke="#A330A5"/>
<ellipse cx="209.879" cy="260.402" rx="15.2928" ry="3.14566" fill="#AF851E"/>
<rect x="194.586" y="253.901" width="30.5856" height="6.50103" fill="#AF851E"/>
<path d="M196.793 261.857V257.342H197.991V262.208L197.424 262.053L197.109 261.966L196.793 261.857Z" fill="#FFEC6A" stroke="#FFEC6A"/>
<path d="M201.365 262.86V258.618H204.519V263.185L202.942 263.022L201.365 262.86Z" fill="#FFEC6A" stroke="#FFEC6A"/>
<rect x="194.586" y="253.9" width="30.5856" height="1.78254" fill="#FABD01"/>
<ellipse cx="209.879" cy="255.683" rx="15.2928" ry="3.66994" fill="#FABD01"/>
<ellipse cx="209.879" cy="253.901" rx="15.2928" ry="2.93595" fill="#FEE966"/>
<ellipse cx="209.879" cy="260.402" rx="15.2928" ry="3.14566" fill="#AF851E"/>
<rect x="194.586" y="253.901" width="30.5856" height="6.50103" fill="#AF851E"/>
<path d="M196.793 261.857V257.342H197.991V262.208L197.424 262.053L197.109 261.966L196.793 261.857Z" fill="#FFEC6A" stroke="#FFEC6A"/>
<path d="M201.365 262.86V258.618H204.519V263.185L202.942 263.022L201.365 262.86Z" fill="#FFEC6A" stroke="#FFEC6A"/>
<rect x="194.586" y="253.9" width="30.5856" height="1.78254" fill="#FABD01"/>
<ellipse cx="209.879" cy="255.683" rx="15.2928" ry="3.66994" fill="#FABD01"/>
<ellipse cx="209.879" cy="253.901" rx="15.2928" ry="2.93595" fill="#FEE966"/>
<ellipse cx="203.573" cy="253.704" rx="15.2928" ry="3.14566" fill="#AF851E"/>
<rect x="188.28" y="247.204" width="30.5856" height="6.50103" fill="#AF851E"/>
<path d="M190.487 255.16V250.646H191.685V255.511L191.118 255.356L190.803 255.269L190.487 255.16Z" fill="#FFEC6A" stroke="#FFEC6A"/>
<path d="M195.059 256.162V251.921H198.212V256.488L196.636 256.325L195.059 256.162Z" fill="#FFEC6A" stroke="#FFEC6A"/>
<rect x="188.28" y="247.204" width="30.5856" height="1.78254" fill="#FABD01"/>
<ellipse cx="203.573" cy="248.986" rx="15.2928" ry="3.66994" fill="#FABD01"/>
<ellipse cx="203.573" cy="247.204" rx="15.2928" ry="2.93595" fill="#FEE966"/>
<ellipse cx="209.879" cy="247.008" rx="15.2928" ry="3.14566" fill="#AF851E"/>
<rect x="194.586" y="240.507" width="30.5856" height="6.50103" fill="#AF851E"/>
<path d="M196.793 248.464V243.949H197.991V248.815L197.424 248.66L197.109 248.573L196.793 248.464Z" fill="#FFEC6A" stroke="#FFEC6A"/>
<path d="M201.365 249.466V245.225H204.519V249.791L202.942 249.629L201.365 249.466Z" fill="#FFEC6A" stroke="#FFEC6A"/>
<rect x="194.586" y="240.507" width="30.5856" height="1.78254" fill="#FABD01"/>
<ellipse cx="209.879" cy="242.29" rx="15.2928" ry="3.66994" fill="#FABD01"/>
<ellipse cx="209.879" cy="240.507" rx="15.2928" ry="2.93595" fill="#FEE966"/>
<ellipse cx="216.185" cy="240.311" rx="15.2928" ry="3.14566" fill="#AF851E"/>
<rect x="200.893" y="233.811" width="30.5856" height="6.50103" fill="#AF851E"/>
<path d="M203.1 241.766V237.252H204.297V242.118L203.73 241.962L203.415 241.876L203.1 241.766Z" fill="#FFEC6A" stroke="#FFEC6A"/>
<path d="M207.672 242.77V238.528H210.825V243.095L209.248 242.932L207.672 242.77Z" fill="#FFEC6A" stroke="#FFEC6A"/>
<rect x="200.893" y="233.81" width="30.5856" height="1.78254" fill="#FABD01"/>
<ellipse cx="216.185" cy="235.593" rx="15.2928" ry="3.66994" fill="#FABD01"/>
<ellipse cx="216.185" cy="233.81" rx="15.2928" ry="2.93595" fill="#FEE966"/>
<ellipse cx="60.7297" cy="180.783" rx="4.72973" ry="4.78335" fill="url(#paint8_linear_182_202)"/>
<ellipse cx="184.181" cy="148.678" rx="2.52252" ry="2.55112" fill="url(#paint9_linear_182_202)"/>
<path d="M145.109 78.8752L144.802 80.1141C144.743 80.3558 144.713 80.4767 144.65 80.5751C144.595 80.662 144.522 80.7359 144.436 80.7916C144.339 80.8545 144.22 80.8847 143.981 80.9452L142.756 81.2549L143.981 81.5646C144.22 81.6251 144.339 81.6552 144.436 81.7182C144.522 81.7738 144.595 81.8477 144.65 81.9347C144.713 82.0331 144.743 82.154 144.802 82.3957L145.109 83.6345L145.415 82.3957C145.475 82.154 145.504 82.0331 145.567 81.9347C145.622 81.8477 145.695 81.7738 145.781 81.7182C145.878 81.6552 145.998 81.6251 146.237 81.5646L147.462 81.2549L146.237 80.9452C145.998 80.8847 145.878 80.8545 145.781 80.7916C145.695 80.7359 145.622 80.662 145.567 80.5751C145.504 80.4767 145.475 80.3558 145.415 80.1141L145.109 78.8752Z" fill="url(#paint10_linear_182_202)" stroke="url(#paint11_linear_182_202)" stroke-width="0.1" stroke-linecap="round" stroke-linejoin="round"/>
<path d="M103.412 108.284L103.228 109.027C103.192 109.172 103.174 109.245 103.137 109.304C103.104 109.356 103.06 109.4 103.008 109.434C102.95 109.472 102.878 109.49 102.735 109.526L102 109.712L102.735 109.898C102.878 109.934 102.95 109.952 103.008 109.99C103.06 110.023 103.104 110.067 103.137 110.12C103.174 110.179 103.192 110.251 103.228 110.396L103.412 111.14L103.596 110.396C103.631 110.251 103.649 110.179 103.687 110.12C103.72 110.067 103.764 110.023 103.815 109.99C103.873 109.952 103.945 109.934 104.089 109.898L104.824 109.712L104.089 109.526C103.945 109.49 103.873 109.472 103.815 109.434C103.764 109.4 103.72 109.356 103.687 109.304C103.649 109.245 103.631 109.172 103.596 109.027L103.412 108.284Z" fill="url(#paint12_linear_182_202)" stroke="url(#paint13_linear_182_202)" stroke-width="0.1" stroke-linecap="round" stroke-linejoin="round"/>
<path d="M157.589 113.856L157.428 114.506C157.397 114.633 157.381 114.697 157.349 114.749C157.32 114.794 157.281 114.833 157.236 114.862C157.185 114.895 157.122 114.911 156.997 114.943L156.353 115.106L156.997 115.268C157.122 115.3 157.185 115.316 157.236 115.349C157.281 115.378 157.32 115.417 157.349 115.463C157.381 115.514 157.397 115.578 157.428 115.705L157.589 116.356L157.75 115.705C157.782 115.578 157.797 115.514 157.83 115.463C157.859 115.417 157.897 115.378 157.942 115.349C157.993 115.316 158.056 115.3 158.182 115.268L158.825 115.106L158.182 114.943C158.056 114.911 157.993 114.895 157.942 114.862C157.897 114.833 157.859 114.794 157.83 114.749C157.797 114.697 157.782 114.633 157.75 114.506L157.589 113.856Z" fill="url(#paint14_linear_182_202)" stroke="url(#paint15_linear_182_202)" stroke-width="0.1" stroke-linecap="round" stroke-linejoin="round"/>
<path d="M233.836 229.856L233.643 230.637C233.606 230.789 233.587 230.865 233.548 230.927C233.513 230.982 233.467 231.029 233.413 231.064C233.351 231.103 233.276 231.122 233.125 231.16L232.353 231.356L233.125 231.551C233.276 231.589 233.351 231.608 233.413 231.648C233.467 231.683 233.513 231.729 233.548 231.784C233.587 231.846 233.606 231.922 233.643 232.075L233.836 232.856L234.029 232.075C234.067 231.922 234.086 231.846 234.125 231.784C234.16 231.729 234.206 231.683 234.26 231.648C234.321 231.608 234.397 231.589 234.547 231.551L235.32 231.356L234.547 231.16C234.397 231.122 234.321 231.103 234.26 231.064C234.206 231.029 234.16 230.982 234.125 230.927C234.086 230.865 234.067 230.789 234.029 230.637L233.836 229.856Z" fill="url(#paint16_linear_182_202)" stroke="url(#paint17_linear_182_202)" stroke-width="0.1" stroke-linecap="round" stroke-linejoin="round"/>
<path d="M155.236 111L155.075 111.651C155.044 111.778 155.028 111.841 154.995 111.893C154.966 111.939 154.928 111.977 154.883 112.007C154.832 112.04 154.769 112.056 154.643 112.087L154 112.25L154.643 112.413C154.769 112.444 154.832 112.46 154.883 112.493C154.928 112.523 154.966 112.561 154.995 112.607C155.028 112.659 155.044 112.722 155.075 112.849L155.236 113.5L155.397 112.849C155.428 112.722 155.444 112.659 155.477 112.607C155.506 112.561 155.544 112.523 155.589 112.493C155.64 112.46 155.703 112.444 155.829 112.413L156.472 112.25L155.829 112.087C155.703 112.056 155.64 112.04 155.589 112.007C155.544 111.977 155.506 111.939 155.477 111.893C155.444 111.841 155.428 111.778 155.397 111.651L155.236 111Z" fill="url(#paint18_linear_182_202)" stroke="url(#paint19_linear_182_202)" stroke-width="0.1" stroke-linecap="round" stroke-linejoin="round"/>
<path d="M231.483 227L231.29 227.781C231.252 227.933 231.234 228.009 231.194 228.071C231.16 228.126 231.114 228.173 231.059 228.208C230.998 228.248 230.923 228.267 230.772 228.305L230 228.5L230.772 228.695C230.923 228.733 230.998 228.752 231.059 228.792C231.114 228.827 231.16 228.874 231.194 228.929C231.234 228.991 231.252 229.067 231.29 229.219L231.483 230L231.676 229.219C231.714 229.067 231.733 228.991 231.772 228.929C231.807 228.874 231.853 228.827 231.907 228.792C231.968 228.752 232.044 228.733 232.194 228.695L232.966 228.5L232.194 228.305C232.044 228.267 231.968 228.248 231.907 228.208C231.853 228.173 231.807 228.126 231.772 228.071C231.733 228.009 231.714 227.933 231.676 227.781L231.483 227Z" fill="url(#paint20_linear_182_202)" stroke="url(#paint21_linear_182_202)" stroke-width="0.1" stroke-linecap="round" stroke-linejoin="round"/>
<path d="M128.26 88.9888L128.077 89.7321C128.041 89.8771 128.023 89.9496 127.986 90.0087C127.953 90.0609 127.909 90.1052 127.857 90.1386C127.799 90.1763 127.727 90.1945 127.584 90.2307L126.849 90.4166L127.584 90.6024C127.727 90.6387 127.799 90.6568 127.857 90.6945C127.909 90.7279 127.953 90.7723 127.986 90.8245C128.023 90.8835 128.041 90.956 128.077 91.101L128.26 91.8444L128.444 91.101C128.48 90.956 128.498 90.8835 128.535 90.8245C128.568 90.7723 128.612 90.7279 128.664 90.6945C128.722 90.6568 128.794 90.6387 128.937 90.6024L129.672 90.4166L128.937 90.2307C128.794 90.1945 128.722 90.1763 128.664 90.1386C128.612 90.1052 128.568 90.0609 128.535 90.0087C128.498 89.9496 128.48 89.8771 128.444 89.7321L128.26 88.9888Z" fill="url(#paint22_linear_182_202)" stroke="url(#paint23_linear_182_202)" stroke-width="0.1" stroke-linecap="round" stroke-linejoin="round"/>
<path d="M20.995 41.35C19.4317 41.35 17.9383 41.2217 16.515 40.965C15.115 40.7083 13.925 40.3467 12.945 39.88V34C14.0417 34.5133 15.2433 34.9333 16.55 35.26C17.88 35.5867 19.0933 35.75 20.19 35.75C21.1233 35.75 21.835 35.6567 22.325 35.47C22.8383 35.2833 23.095 34.9333 23.095 34.42C23.095 33.8367 22.71 33.4167 21.94 33.16C21.17 32.88 20.0617 32.495 18.615 32.005C17.1217 31.4917 15.9433 30.9433 15.08 30.36C14.24 29.7533 13.6333 29.03 13.26 28.19C12.8867 27.3267 12.7 26.2767 12.7 25.04C12.7 20.42 15.9083 18.11 22.325 18.11C23.1183 18.11 23.9583 18.1683 24.845 18.285C25.755 18.3783 26.6183 18.5067 27.435 18.67C28.275 18.81 28.9867 18.9733 29.57 19.16V25.075C28.38 24.6083 27.2833 24.2817 26.28 24.095C25.3 23.885 24.4017 23.78 23.585 23.78C22.7683 23.78 22.0217 23.85 21.345 23.99C20.6917 24.1067 20.365 24.4333 20.365 24.97C20.365 25.4133 20.6567 25.7517 21.24 25.985C21.8233 26.195 22.8033 26.4867 24.18 26.86C26.0233 27.3733 27.4117 27.98 28.345 28.68C29.3017 29.38 29.9433 30.2083 30.27 31.165C30.62 32.0983 30.795 33.1717 30.795 34.385C30.795 36.485 29.9783 38.1767 28.345 39.46C26.7117 40.72 24.2617 41.35 20.995 41.35ZM39.0024 41V23.955H32.9824V18.46H52.5824V23.955H46.5274V41H39.0024ZM51.7938 41L60.4388 18.46H68.3138L76.9938 41H69.1538L67.4038 36.52H61.3488L59.6338 41H51.7938ZM62.2588 31.27H66.4938L64.3588 25.81L62.2588 31.27ZM80.5855 41V18.46H88.1105V25.6L93.9905 18.46H102.496L94.6905 27.77L103.126 41H95.1455L90.0705 32.53L88.1105 34.805V41H80.5855ZM106.729 41V18.46H114.254V41H106.729ZM118.551 41V18.46H124.886L132.306 28.855V18.46H139.831V41H133.426L126.076 30.64V41H118.551ZM156.153 41.35C152.023 41.35 148.873 40.37 146.703 38.41C144.533 36.45 143.448 33.5917 143.448 29.835C143.448 26.0317 144.58 23.1267 146.843 21.12C149.106 19.1133 152.385 18.11 156.678 18.11C158.125 18.11 159.408 18.1917 160.528 18.355C161.671 18.5183 162.768 18.775 163.818 19.125V25.53C162.745 25.1333 161.66 24.865 160.563 24.725C159.466 24.5617 158.346 24.48 157.203 24.48C155.29 24.48 153.796 24.8883 152.723 25.705C151.65 26.5217 151.113 27.8983 151.113 29.835C151.113 31.7017 151.533 33.0317 152.373 33.825C153.236 34.595 154.485 34.98 156.118 34.98C157.121 34.98 158.008 34.8633 158.778 34.63V32.32H154.683V27.735H165.043V39.215C164.133 39.7983 162.943 40.3 161.473 40.72C160.003 41.14 158.23 41.35 156.153 41.35Z" fill="white"/>
<path d="M17.995 41.35C16.4317 41.35 14.9383 41.2217 13.515 40.965C12.115 40.7083 10.925 40.3467 9.945 39.88V34C11.0417 34.5133 12.2433 34.9333 13.55 35.26C14.88 35.5867 16.0933 35.75 17.19 35.75C18.1233 35.75 18.835 35.6567 19.325 35.47C19.8383 35.2833 20.095 34.9333 20.095 34.42C20.095 33.8367 19.71 33.4167 18.94 33.16C18.17 32.88 17.0617 32.495 15.615 32.005C14.1217 31.4917 12.9433 30.9433 12.08 30.36C11.24 29.7533 10.6333 29.03 10.26 28.19C9.88667 27.3267 9.7 26.2767 9.7 25.04C9.7 20.42 12.9083 18.11 19.325 18.11C20.1183 18.11 20.9583 18.1683 21.845 18.285C22.755 18.3783 23.6183 18.5067 24.435 18.67C25.275 18.81 25.9867 18.9733 26.57 19.16V25.075C25.38 24.6083 24.2833 24.2817 23.28 24.095C22.3 23.885 21.4017 23.78 20.585 23.78C19.7683 23.78 19.0217 23.85 18.345 23.99C17.6917 24.1067 17.365 24.4333 17.365 24.97C17.365 25.4133 17.6567 25.7517 18.24 25.985C18.8233 26.195 19.8033 26.4867 21.18 26.86C23.0233 27.3733 24.4117 27.98 25.345 28.68C26.3017 29.38 26.9433 30.2083 27.27 31.165C27.62 32.0983 27.795 33.1717 27.795 34.385C27.795 36.485 26.9783 38.1767 25.345 39.46C23.7117 40.72 21.2617 41.35 17.995 41.35ZM36.0024 41V23.955H29.9824V18.46H49.5824V23.955H43.5274V41H36.0024ZM48.7938 41L57.4388 18.46H65.3138L73.9938 41H66.1538L64.4038 36.52H58.3488L56.6338 41H48.7938ZM59.2588 31.27H63.4938L61.3588 25.81L59.2588 31.27ZM77.5855 41V18.46H85.1105V25.6L90.9905 18.46H99.4955L91.6905 27.77L100.126 41H92.1455L87.0705 32.53L85.1105 34.805V41H77.5855ZM103.729 41V18.46H111.254V41H103.729ZM115.551 41V18.46H121.886L129.306 28.855V18.46H136.831V41H130.426L123.076 30.64V41H115.551ZM153.153 41.35C149.023 41.35 145.873 40.37 143.703 38.41C141.533 36.45 140.448 33.5917 140.448 29.835C140.448 26.0317 141.58 23.1267 143.843 21.12C146.106 19.1133 149.385 18.11 153.678 18.11C155.125 18.11 156.408 18.1917 157.528 18.355C158.671 18.5183 159.768 18.775 160.818 19.125V25.53C159.745 25.1333 158.66 24.865 157.563 24.725C156.466 24.5617 155.346 24.48 154.203 24.48C152.29 24.48 150.796 24.8883 149.723 25.705C148.65 26.5217 148.113 27.8983 148.113 29.835C148.113 31.7017 148.533 33.0317 149.373 33.825C150.236 34.595 151.485 34.98 153.118 34.98C154.121 34.98 155.008 34.8633 155.778 34.63V32.32H151.683V27.735H162.043V39.215C161.133 39.7983 159.943 40.3 158.473 40.72C157.003 41.14 155.23 41.35 153.153 41.35Z" fill="#FFCC41"/>
<defs>
<linearGradient id="paint0_linear_182_202" x1="256.325" y1="29.2856" x2="262.681" y2="22.9795" gradientUnits="userSpaceOnUse">
<stop offset="0.0001" stop-color="#B38A24"/>
<stop offset="0.505208" stop-color="#FFC316"/>
<stop offset="1" stop-color="#FBE763"/>
</linearGradient>
<linearGradient id="paint1_linear_182_202" x1="39.3438" y1="10" x2="43.3436" y2="6.03166" gradientUnits="userSpaceOnUse">
<stop offset="0.0001" stop-color="#B38A24"/>
<stop offset="0.505208" stop-color="#FFC316"/>
<stop offset="1" stop-color="#FBE763"/>
</linearGradient>
<linearGradient id="paint2_linear_182_202" x1="39.3438" y1="10" x2="43.3436" y2="6.03166" gradientUnits="userSpaceOnUse">
<stop offset="0.0001" stop-color="#B38A24"/>
<stop offset="0.505208" stop-color="#FFC316"/>
<stop offset="1" stop-color="#FBE763"/>
</linearGradient>
<linearGradient id="paint3_linear_182_202" x1="11.7756" y1="82.0437" x2="21.31" y2="72.5845" gradientUnits="userSpaceOnUse">
<stop offset="0.0001" stop-color="#B38A24"/>
<stop offset="0.505208" stop-color="#FFC316"/>
<stop offset="1" stop-color="#FBE763"/>
</linearGradient>
<linearGradient id="paint4_linear_182_202" x1="179" y1="29.5" x2="182.5" y2="26.0277" gradientUnits="userSpaceOnUse">
<stop offset="0.0001" stop-color="#B38A24"/>
<stop offset="0.505208" stop-color="#FFC316"/>
<stop offset="1" stop-color="#FBE763"/>
</linearGradient>
<linearGradient id="paint5_linear_182_202" x1="179" y1="29.5" x2="182.5" y2="26.0277" gradientUnits="userSpaceOnUse">
<stop offset="0.0001" stop-color="#B38A24"/>
<stop offset="0.505208" stop-color="#FFC316"/>
<stop offset="1" stop-color="#FBE763"/>
</linearGradient>
<linearGradient id="paint6_linear_182_202" x1="74" y1="56.5" x2="77.4999" y2="53.0277" gradientUnits="userSpaceOnUse">
<stop offset="0.0001" stop-color="#B38A24"/>
<stop offset="0.505208" stop-color="#FFC316"/>
<stop offset="1" stop-color="#FBE763"/>
</linearGradient>
<linearGradient id="paint7_linear_182_202" x1="74" y1="56.5" x2="77.4999" y2="53.0277" gradientUnits="userSpaceOnUse">
<stop offset="0.0001" stop-color="#B38A24"/>
<stop offset="0.505208" stop-color="#FFC316"/>
<stop offset="1" stop-color="#FBE763"/>
</linearGradient>
<linearGradient id="paint8_linear_182_202" x1="56" y1="185.567" x2="65.5661" y2="176.108" gradientUnits="userSpaceOnUse">
<stop offset="0.0001" stop-color="#B38A24"/>
<stop offset="0.505208" stop-color="#FFC316"/>
<stop offset="1" stop-color="#FBE763"/>
</linearGradient>
<linearGradient id="paint9_linear_182_202" x1="181.658" y1="151.229" x2="186.76" y2="146.184" gradientUnits="userSpaceOnUse">
<stop offset="0.0001" stop-color="#B38A24"/>
<stop offset="0.505208" stop-color="#FFC316"/>
<stop offset="1" stop-color="#FBE763"/>
</linearGradient>
<linearGradient id="paint10_linear_182_202" x1="142.756" y1="83.6345" x2="147.515" y2="78.9289" gradientUnits="userSpaceOnUse">
<stop offset="0.0001" stop-color="#B38A24"/>
<stop offset="0.505208" stop-color="#FFC316"/>
<stop offset="1" stop-color="#FBE763"/>
</linearGradient>
<linearGradient id="paint11_linear_182_202" x1="142.756" y1="83.6345" x2="147.515" y2="78.9289" gradientUnits="userSpaceOnUse">
<stop offset="0.0001" stop-color="#B38A24"/>
<stop offset="0.505208" stop-color="#FFC316"/>
<stop offset="1" stop-color="#FBE763"/>
</linearGradient>
<linearGradient id="paint12_linear_182_202" x1="102" y1="111.14" x2="104.855" y2="108.316" gradientUnits="userSpaceOnUse">
<stop offset="0.0001" stop-color="#B38A24"/>
<stop offset="0.505208" stop-color="#FFC316"/>
<stop offset="1" stop-color="#FBE763"/>
</linearGradient>
<linearGradient id="paint13_linear_182_202" x1="102" y1="111.14" x2="104.855" y2="108.316" gradientUnits="userSpaceOnUse">
<stop offset="0.0001" stop-color="#B38A24"/>
<stop offset="0.505208" stop-color="#FFC316"/>
<stop offset="1" stop-color="#FBE763"/>
</linearGradient>
<linearGradient id="paint14_linear_182_202" x1="156.353" y1="116.356" x2="158.853" y2="113.884" gradientUnits="userSpaceOnUse">
<stop offset="0.0001" stop-color="#B38A24"/>
<stop offset="0.505208" stop-color="#FFC316"/>
<stop offset="1" stop-color="#FBE763"/>
</linearGradient>
<linearGradient id="paint15_linear_182_202" x1="156.353" y1="116.356" x2="158.853" y2="113.884" gradientUnits="userSpaceOnUse">
<stop offset="0.0001" stop-color="#B38A24"/>
<stop offset="0.505208" stop-color="#FFC316"/>
<stop offset="1" stop-color="#FBE763"/>
</linearGradient>
<linearGradient id="paint16_linear_182_202" x1="232.353" y1="232.856" x2="235.353" y2="229.89" gradientUnits="userSpaceOnUse">
<stop offset="0.0001" stop-color="#B38A24"/>
<stop offset="0.505208" stop-color="#FFC316"/>
<stop offset="1" stop-color="#FBE763"/>
</linearGradient>
<linearGradient id="paint17_linear_182_202" x1="232.353" y1="232.856" x2="235.353" y2="229.89" gradientUnits="userSpaceOnUse">
<stop offset="0.0001" stop-color="#B38A24"/>
<stop offset="0.505208" stop-color="#FFC316"/>
<stop offset="1" stop-color="#FBE763"/>
</linearGradient>
<linearGradient id="paint18_linear_182_202" x1="154" y1="113.5" x2="156.5" y2="111.028" gradientUnits="userSpaceOnUse">
<stop offset="0.0001" stop-color="#B38A24"/>
<stop offset="0.505208" stop-color="#FFC316"/>
<stop offset="1" stop-color="#FBE763"/>
</linearGradient>
<linearGradient id="paint19_linear_182_202" x1="154" y1="113.5" x2="156.5" y2="111.028" gradientUnits="userSpaceOnUse">
<stop offset="0.0001" stop-color="#B38A24"/>
<stop offset="0.505208" stop-color="#FFC316"/>
<stop offset="1" stop-color="#FBE763"/>
</linearGradient>
<linearGradient id="paint20_linear_182_202" x1="230" y1="230" x2="233" y2="227.034" gradientUnits="userSpaceOnUse">
<stop offset="0.0001" stop-color="#B38A24"/>
<stop offset="0.505208" stop-color="#FFC316"/>
<stop offset="1" stop-color="#FBE763"/>
</linearGradient>
<linearGradient id="paint21_linear_182_202" x1="230" y1="230" x2="233" y2="227.034" gradientUnits="userSpaceOnUse">
<stop offset="0.0001" stop-color="#B38A24"/>
<stop offset="0.505208" stop-color="#FFC316"/>
<stop offset="1" stop-color="#FBE763"/>
</linearGradient>
<linearGradient id="paint22_linear_182_202" x1="126.849" y1="91.8444" x2="129.704" y2="89.021" gradientUnits="userSpaceOnUse">
<stop offset="0.0001" stop-color="#B38A24"/>
<stop offset="0.505208" stop-color="#FFC316"/>
<stop offset="1" stop-color="#FBE763"/>
</linearGradient>
<linearGradient id="paint23_linear_182_202" x1="126.849" y1="91.8444" x2="129.704" y2="89.021" gradientUnits="userSpaceOnUse">
<stop offset="0.0001" stop-color="#B38A24"/>
<stop offset="0.505208" stop-color="#FFC316"/>
<stop offset="1" stop-color="#FBE763"/>
</linearGradient>
<clipPath id="clip0_182_202">
<rect width="39.7297" height="23.5979" fill="white" transform="translate(160.65 161.996)"/>
</clipPath>
<clipPath id="clip1_182_202">
<rect width="40" height="24" fill="white" transform="translate(89 162)"/>
</clipPath>
</defs>
</svg>
