<svg width="180" height="182" viewBox="0 0 180 182" fill="none" xmlns="http://www.w3.org/2000/svg">
<g filter="url(#filter0_i_57_260)">
<circle cx="90" cy="92" r="90" fill="#386DDD"/>
</g>
<g style="mix-blend-mode:lighten" filter="url(#filter1_f_57_260)">
<path d="M173.282 59.8818C154.439 13.8863 101.877 -8.12524 55.8818 10.7178C55.8818 10.7178 87 0.505492 124 16C161 31.4946 173.282 59.8818 173.282 59.8818Z" fill="white" fill-opacity="0.75"/>
</g>
<g filter="url(#filter2_i_57_260)">
<circle cx="90" cy="92" r="74" fill="url(#paint0_linear_57_260)"/>
</g>
<circle cx="90" cy="92" r="63.5" fill="#386DDD" stroke="url(#paint1_linear_57_260)"/>
<g filter="url(#filter3_dd_57_260)">
<path d="M92.7101 40.7197C90.8583 39.655 88.5802 39.655 86.7284 40.7197L80.0432 44.5637L53.676 59.8035L47.0092 63.6369C45.1476 64.7073 44 66.691 44 68.8384V114.63C44 116.778 45.1476 118.761 47.0092 119.832L53.676 123.665L80.2851 138.905L86.9703 142.749C88.8221 143.814 91.1002 143.814 92.952 142.749L99.6372 138.905L125.762 123.665L132.429 119.832C134.291 118.761 135.439 116.778 135.439 114.63V68.8384C135.439 66.691 134.291 64.7073 132.429 63.6369L125.762 59.8035L99.3953 44.5637L92.7101 40.7197ZM66.3496 108.707C64.4946 107.634 63.3521 105.655 63.3521 103.512V79.9568C63.3521 77.8143 64.4946 75.8343 66.3496 74.7621L86.7168 62.9902C88.5744 61.9166 90.8641 61.9166 92.7217 62.9902L113.089 74.7621C114.944 75.8343 116.086 77.8143 116.086 79.9568V103.512C116.086 105.655 114.944 107.634 113.089 108.707L92.7217 120.479C90.8641 121.552 88.5745 121.552 86.7168 120.479L66.3496 108.707Z" fill="white"/>
</g>
<defs>
<filter id="filter0_i_57_260" x="0" y="0" width="181" height="182" filterUnits="userSpaceOnUse" color-interpolation-filters="sRGB">
<feFlood flood-opacity="0" result="BackgroundImageFix"/>
<feBlend mode="normal" in="SourceGraphic" in2="BackgroundImageFix" result="shape"/>
<feColorMatrix in="SourceAlpha" type="matrix" values="0 0 0 0 0 0 0 0 0 0 0 0 0 0 0 0 0 0 127 0" result="hardAlpha"/>
<feOffset dx="1" dy="-2"/>
<feGaussianBlur stdDeviation="1"/>
<feComposite in2="hardAlpha" operator="arithmetic" k2="-1" k3="1"/>
<feColorMatrix type="matrix" values="0 0 0 0 0.0431373 0 0 0 0 0.105882 0 0 0 0 0.541176 0 0 0 1 0"/>
<feBlend mode="normal" in2="shape" result="effect1_innerShadow_57_260"/>
</filter>
<filter id="filter1_f_57_260" x="52.8818" y="0.976387" width="123.401" height="61.9054" filterUnits="userSpaceOnUse" color-interpolation-filters="sRGB">
<feFlood flood-opacity="0" result="BackgroundImageFix"/>
<feBlend mode="normal" in="SourceGraphic" in2="BackgroundImageFix" result="shape"/>
<feGaussianBlur stdDeviation="1.5" result="effect1_foregroundBlur_57_260"/>
</filter>
<filter id="filter2_i_57_260" x="16" y="17" width="149" height="149" filterUnits="userSpaceOnUse" color-interpolation-filters="sRGB">
<feFlood flood-opacity="0" result="BackgroundImageFix"/>
<feBlend mode="normal" in="SourceGraphic" in2="BackgroundImageFix" result="shape"/>
<feColorMatrix in="SourceAlpha" type="matrix" values="0 0 0 0 0 0 0 0 0 0 0 0 0 0 0 0 0 0 127 0" result="hardAlpha"/>
<feOffset dx="1" dy="-1"/>
<feGaussianBlur stdDeviation="1"/>
<feComposite in2="hardAlpha" operator="arithmetic" k2="-1" k3="1"/>
<feColorMatrix type="matrix" values="0 0 0 0 1 0 0 0 0 1 0 0 0 0 1 0 0 0 0.65 0"/>
<feBlend mode="normal" in2="shape" result="effect1_innerShadow_57_260"/>
</filter>
<filter id="filter3_dd_57_260" x="41" y="39.9212" width="95.4385" height="108.626" filterUnits="userSpaceOnUse" color-interpolation-filters="sRGB">
<feFlood flood-opacity="0" result="BackgroundImageFix"/>
<feColorMatrix in="SourceAlpha" type="matrix" values="0 0 0 0 0 0 0 0 0 0 0 0 0 0 0 0 0 0 127 0" result="hardAlpha"/>
<feOffset dx="-1" dy="2"/>
<feGaussianBlur stdDeviation="0.5"/>
<feComposite in2="hardAlpha" operator="out"/>
<feColorMatrix type="matrix" values="0 0 0 0 0.054902 0 0 0 0 0.113725 0 0 0 0 0.752941 0 0 0 0.75 0"/>
<feBlend mode="normal" in2="BackgroundImageFix" result="effect1_dropShadow_57_260"/>
<feColorMatrix in="SourceAlpha" type="matrix" values="0 0 0 0 0 0 0 0 0 0 0 0 0 0 0 0 0 0 127 0" result="hardAlpha"/>
<feOffset dx="-1" dy="3"/>
<feGaussianBlur stdDeviation="1"/>
<feComposite in2="hardAlpha" operator="out"/>
<feColorMatrix type="matrix" values="0 0 0 0 0.12549 0 0 0 0 0.156863 0 0 0 0 0.752941 0 0 0 0.5 0"/>
<feBlend mode="normal" in2="effect1_dropShadow_57_260" result="effect2_dropShadow_57_260"/>
<feBlend mode="normal" in="SourceGraphic" in2="effect2_dropShadow_57_260" result="shape"/>
</filter>
<linearGradient id="paint0_linear_57_260" x1="164" y1="40.8" x2="16" y2="143.2" gradientUnits="userSpaceOnUse">
<stop stop-color="#0D26C1"/>
<stop offset="1" stop-color="#396DF4"/>
</linearGradient>
<linearGradient id="paint1_linear_57_260" x1="154" y1="28" x2="26" y2="156" gradientUnits="userSpaceOnUse">
<stop offset="0.270833" stop-color="#3949A6"/>
<stop offset="1" stop-color="#6F88EF"/>
</linearGradient>
</defs>
</svg>
