<svg width="180" height="182" viewBox="0 0 180 182" fill="none" xmlns="http://www.w3.org/2000/svg">
<g filter="url(#filter0_i_57_303)">
<circle cx="90" cy="92" r="90" fill="#14C8FF"/>
</g>
<g style="mix-blend-mode:lighten" filter="url(#filter1_f_57_303)">
<path d="M173.282 59.8818C154.439 13.8863 101.877 -8.12524 55.8818 10.7178C55.8818 10.7178 87 0.505492 124 16C161 31.4946 173.282 59.8818 173.282 59.8818Z" fill="white" fill-opacity="0.75"/>
</g>
<g filter="url(#filter2_i_57_303)">
<circle cx="90" cy="92" r="74" fill="url(#paint0_linear_57_303)"/>
</g>
<circle cx="90" cy="92" r="63.5" fill="#14C8FF" stroke="url(#paint1_linear_57_303)"/>
<g filter="url(#filter3_dd_57_303)">
<path d="M135.4 69.3907C138.565 71.9557 140.56 77.2606 139.86 81.1556L133.06 118.776C132.35 122.696 128.6 127.011 124.74 128.366L87.6449 141.391C83.7849 142.746 78.0449 141.766 74.8849 139.201L44.595 114.616C41.43 112.051 39.43 106.771 40.145 102.851L46.945 65.2307C47.65 61.3107 51.4 57.0007 55.265 55.6407L92.3649 42.6107C96.2299 41.2507 101.965 42.2407 105.13 44.8007L135.4 69.3907ZM103.845 86.2806L105.355 78.6306L91.1949 78.6556L93.1949 68.5757H88.6199C85.3198 73.633 80.5132 77.5248 74.8799 79.7006L73.5949 86.2956H79.7849C79.7849 86.2956 77.6899 95.7656 76.9849 99.2606C75.2349 108.161 79.6349 114.471 86.3949 114.471H97.8349L99.8349 106.021H90.2649C86.0149 106.021 86.2399 103.696 87.0649 99.5706L89.6999 86.2606L103.845 86.2806Z" fill="white"/>
</g>
<defs>
<filter id="filter0_i_57_303" x="0" y="0" width="181" height="182" filterUnits="userSpaceOnUse" color-interpolation-filters="sRGB">
<feFlood flood-opacity="0" result="BackgroundImageFix"/>
<feBlend mode="normal" in="SourceGraphic" in2="BackgroundImageFix" result="shape"/>
<feColorMatrix in="SourceAlpha" type="matrix" values="0 0 0 0 0 0 0 0 0 0 0 0 0 0 0 0 0 0 127 0" result="hardAlpha"/>
<feOffset dx="1" dy="-2"/>
<feGaussianBlur stdDeviation="1"/>
<feComposite in2="hardAlpha" operator="arithmetic" k2="-1" k3="1"/>
<feColorMatrix type="matrix" values="0 0 0 0 0.156863 0 0 0 0 0.658824 0 0 0 0 0.862745 0 0 0 1 0"/>
<feBlend mode="normal" in2="shape" result="effect1_innerShadow_57_303"/>
</filter>
<filter id="filter1_f_57_303" x="52.8818" y="0.976387" width="123.401" height="61.9054" filterUnits="userSpaceOnUse" color-interpolation-filters="sRGB">
<feFlood flood-opacity="0" result="BackgroundImageFix"/>
<feBlend mode="normal" in="SourceGraphic" in2="BackgroundImageFix" result="shape"/>
<feGaussianBlur stdDeviation="1.5" result="effect1_foregroundBlur_57_303"/>
</filter>
<filter id="filter2_i_57_303" x="16" y="17" width="149" height="149" filterUnits="userSpaceOnUse" color-interpolation-filters="sRGB">
<feFlood flood-opacity="0" result="BackgroundImageFix"/>
<feBlend mode="normal" in="SourceGraphic" in2="BackgroundImageFix" result="shape"/>
<feColorMatrix in="SourceAlpha" type="matrix" values="0 0 0 0 0 0 0 0 0 0 0 0 0 0 0 0 0 0 127 0" result="hardAlpha"/>
<feOffset dx="1" dy="-1"/>
<feGaussianBlur stdDeviation="1"/>
<feComposite in2="hardAlpha" operator="arithmetic" k2="-1" k3="1"/>
<feColorMatrix type="matrix" values="0 0 0 0 1 0 0 0 0 1 0 0 0 0 1 0 0 0 0.65 0"/>
<feBlend mode="normal" in2="shape" result="effect1_innerShadow_57_303"/>
</filter>
<filter id="filter3_dd_57_303" x="37" y="42" width="104" height="105" filterUnits="userSpaceOnUse" color-interpolation-filters="sRGB">
<feFlood flood-opacity="0" result="BackgroundImageFix"/>
<feColorMatrix in="SourceAlpha" type="matrix" values="0 0 0 0 0 0 0 0 0 0 0 0 0 0 0 0 0 0 127 0" result="hardAlpha"/>
<feOffset dx="-1" dy="2"/>
<feGaussianBlur stdDeviation="0.5"/>
<feComposite in2="hardAlpha" operator="out"/>
<feColorMatrix type="matrix" values="0 0 0 0 0.203922 0 0 0 0 0.627451 0 0 0 0 0.827451 0 0 0 0.75 0"/>
<feBlend mode="normal" in2="BackgroundImageFix" result="effect1_dropShadow_57_303"/>
<feColorMatrix in="SourceAlpha" type="matrix" values="0 0 0 0 0 0 0 0 0 0 0 0 0 0 0 0 0 0 127 0" result="hardAlpha"/>
<feOffset dx="-1" dy="3"/>
<feGaussianBlur stdDeviation="1"/>
<feComposite in2="hardAlpha" operator="out"/>
<feColorMatrix type="matrix" values="0 0 0 0 0.27451 0 0 0 0 0.662745 0 0 0 0 0.835294 0 0 0 0.5 0"/>
<feBlend mode="normal" in2="effect1_dropShadow_57_303" result="effect2_dropShadow_57_303"/>
<feBlend mode="normal" in="SourceGraphic" in2="effect2_dropShadow_57_303" result="shape"/>
</filter>
<linearGradient id="paint0_linear_57_303" x1="164" y1="40.8" x2="16" y2="143.2" gradientUnits="userSpaceOnUse">
<stop stop-color="#16B9EA"/>
<stop offset="1" stop-color="#7EE1FF"/>
</linearGradient>
<linearGradient id="paint1_linear_57_303" x1="154" y1="28" x2="26" y2="156" gradientUnits="userSpaceOnUse">
<stop offset="0.270833" stop-color="#16B9EA"/>
<stop offset="1" stop-color="#55D7FF"/>
</linearGradient>
</defs>
</svg>
